M48
;Layer_Color=9474304
;FILE_FORMAT=2:5
INCH,LZ
;TYPE=PLATED
T1F00S00C0.01181
T2F00S00C0.01575
T3F00S00C0.03543
%
T01
X0003398Y0012421
Y0024232
X0015209
Y0012421
X002702
Y0024232
Y0036043
X0038831
Y0024232
X0050642Y0036043
X00625Y00355
X0064Y00375
X0076Y00335
X0079Y0033
X0084Y0029
X00885Y00325
X00915Y0035
X0095Y00385
X0101
Y0034
Y0028
X0109697Y0036043
X0123Y0036
X0133319Y0036043
X014513
X01375Y00245
X0134Y0024
X01315Y002
X01155Y00205
X0109697Y0012421
X0097886
X00885Y001575
X00905Y0007
X008
X0074264Y0012421
Y0024232
X0083644Y00385
X0121508Y0012421
X0156941
Y0024232
Y0036043
X0168752
Y0024232
Y0012421
X0180563
Y0024232
X0181244Y0045494
X018715
X0193055
X0197821Y0048982
Y0054887
X0193149Y0060466
X0187244
X0181339
X0175433
X0169786Y0058738
X0163881
X0157975
X0157881Y0047222
X0163786
X0169692
X0175339Y0045494
X0168752Y0071476
X0156941
Y0083287
Y0095098
X0168752
Y0083287
X0180563
Y0095098
X014513
X0133319
Y0083287
Y0071476
X014513
Y0083287
X0146164Y0058738
X0140258
X0134353
X0128447
X0122542
X0116636
X0110731
X0110637Y0047222
X0116542
X0122448
X0128353
X0134259
X0140164
X014607
X0151975
X0152069Y0058738
X0099Y00625
X0092
X00875
X00785Y00585
X006575Y0062
X00585Y00645
X00545Y0062
X0051686Y005875
X004578Y0058748
X0039874Y0058747
X0033969Y0058745
X0028063Y0058743
X0022385Y0060365
X0015417Y0060466
X0009512
X0003606
X0001418Y0045562
X0007323Y0045494
X0013228
X0019134
X002478Y0047226
X0030685Y0047228
X003659Y004723
X0042496Y0047232
X0048401Y0047233
X0054307Y0047235
X0060213Y0047237
X0066118Y0047239
X0072024Y004724
X0103Y0046
Y0043
X0097886Y0083287
X0086075
X0074264
X0062453
X0050642
X0038831
X002702
X0015209
X0003398
Y0095098
X0015209
X002702
X0038831
X0050642
X0062453
Y0071476
X0050642
X0038831
X002702
X0109697Y0083287
T02
X0089638Y0048638
X0092Y0051
X0094362Y0048638
Y0053362
X0089638
T03
X0041Y00105
X0051
X0061
X0133Y0010697
X0143
X01165Y00775
X01065
X00965
X00865Y00775
X00765
X00665Y00775
X00665Y00885
X00765Y00885
X00865
X00965
X01065
X01165
Y00995
X01065
X00965
X00865
X00765
X00665
M30
