G04 Layer_Color=16711935*
%FSLAX25Y25*%
%MOIN*%
G70*
G01*
G75*
%ADD22C,0.00394*%
D22*
X84126Y43126D02*
X99874D01*
X84126Y58874D02*
X99874D01*
Y43126D02*
Y58874D01*
X84126Y43126D02*
Y58874D01*
X56752Y60327D02*
X63248D01*
X56752Y63673D02*
X63248D01*
Y60327D02*
Y63673D01*
X56752Y60327D02*
Y63673D01*
X68252D02*
X74748D01*
X68252Y60327D02*
X74748D01*
X68252D02*
Y63673D01*
X74748Y60327D02*
Y63673D01*
X134965Y17539D02*
X143035D01*
X134965Y22461D02*
X143035D01*
Y17539D02*
Y22461D01*
X134965Y17539D02*
Y22461D01*
X137252Y25827D02*
X143748D01*
X137252Y29173D02*
X143748D01*
Y25827D02*
Y29173D01*
X137252Y25827D02*
Y29173D01*
X115173Y20252D02*
Y26748D01*
X111827Y20252D02*
Y26748D01*
X115173D01*
X111827Y20252D02*
X115173D01*
X119252Y24827D02*
X125748D01*
X119252Y28173D02*
X125748D01*
Y24827D02*
Y28173D01*
X119252Y24827D02*
Y28173D01*
X94752Y38173D02*
X101248D01*
X94752Y34827D02*
X101248D01*
X94752D02*
Y38173D01*
X101248Y34827D02*
Y38173D01*
X94752Y32173D02*
X101248D01*
X94752Y28827D02*
X101248D01*
X94752D02*
Y32173D01*
X101248Y28827D02*
Y32173D01*
X78386Y33520D02*
X82980Y38113D01*
X76020Y35886D02*
X80613Y40480D01*
X82980Y38113D01*
X76020Y35886D02*
X78386Y33520D01*
X56252Y39173D02*
X62748Y39173D01*
X56252Y35827D02*
X62748D01*
X56252D02*
Y39173D01*
X62748Y39173D02*
X62748Y35827D01*
X56252Y41827D02*
X62748D01*
X56252Y45173D02*
X62748D01*
Y41827D02*
Y45173D01*
X56252Y41827D02*
Y45173D01*
X90173Y18252D02*
Y24748D01*
X86827Y18252D02*
Y24748D01*
X90173D01*
X86827Y18252D02*
X90173D01*
X83673D02*
Y24748D01*
X80327Y18252D02*
Y24748D01*
X83673D01*
X80327Y18252D02*
X83673D01*
X90173Y6752D02*
Y13248D01*
X86827Y6752D02*
Y13248D01*
X90173D01*
X86827Y6752D02*
X90173D01*
X83673D02*
Y13248D01*
X80327Y6752D02*
Y13248D01*
X83673D01*
X80327Y6752D02*
X83673D01*
X113327Y37252D02*
Y43748D01*
X116673Y37252D02*
Y43748D01*
X113327Y37252D02*
X116673D01*
X113327Y43748D02*
X116673D01*
X122673Y37252D02*
Y43748D01*
X119327Y37252D02*
Y43748D01*
X122673D01*
X119327Y37252D02*
X122673D01*
X0Y0D02*
Y16000D01*
Y0D02*
X195500D01*
Y105500D01*
X0D02*
X195500D01*
X0Y16000D02*
Y105500D01*
M02*
