G04 Layer_Physical_Order=1*
G04 Layer_Color=255*
%FSLAX25Y25*%
%MOIN*%
G70*
G01*
G75*
%ADD10R,0.01181X0.03740*%
%ADD11R,0.03740X0.01181*%
%ADD12R,0.03150X0.03937*%
%ADD13R,0.05118X0.05315*%
%ADD14R,0.03937X0.03150*%
G04:AMPARAMS|DCode=15|XSize=31.5mil|YSize=39.37mil|CornerRadius=0mil|HoleSize=0mil|Usage=FLASHONLY|Rotation=45.000|XOffset=0mil|YOffset=0mil|HoleType=Round|Shape=Rectangle|*
%AMROTATEDRECTD15*
4,1,4,0.00278,-0.02506,-0.02506,0.00278,-0.00278,0.02506,0.02506,-0.00278,0.00278,-0.02506,0.0*
%
%ADD15ROTATEDRECTD15*%

%ADD16R,0.20000X0.09508*%
%ADD17R,0.19685X0.09016*%
%ADD18C,0.01000*%
%ADD19C,0.05512*%
%ADD20C,0.02362*%
%ADD21C,0.01969*%
%ADD22C,0.00394*%
%ADD23C,0.05906*%
%ADD24R,0.05906X0.05906*%
%ADD25R,0.08661X0.08661*%
%ADD26C,0.01969*%
%ADD27C,0.02362*%
G36*
X89002Y33832D02*
X89017Y33641D01*
X89030Y33557D01*
X89047Y33479D01*
X89068Y33410D01*
X89093Y33347D01*
X89121Y33292D01*
X89153Y33244D01*
X89189Y33203D01*
X87811D01*
X87847Y33244D01*
X87879Y33292D01*
X87907Y33347D01*
X87932Y33410D01*
X87953Y33479D01*
X87970Y33557D01*
X87983Y33641D01*
X87992Y33733D01*
X88000Y33938D01*
X89000D01*
X89002Y33832D01*
D02*
G37*
G36*
X84788Y39581D02*
X84714Y39504D01*
X84597Y39360D01*
X84554Y39293D01*
X84522Y39229D01*
X84499Y39169D01*
X84487Y39113D01*
X84485Y39060D01*
X84493Y39010D01*
X84512Y38964D01*
X83223Y39390D01*
X84003Y40210D01*
X84788Y39581D01*
D02*
G37*
G36*
X92394Y37078D02*
Y34582D01*
X92386Y34543D01*
X92394Y34505D01*
Y34502D01*
X92389Y34464D01*
X92394Y34448D01*
Y33968D01*
X92394Y33531D01*
X92394D01*
Y33468D01*
X92394D01*
Y32552D01*
X92389Y32536D01*
X92394Y32498D01*
Y32495D01*
X92386Y32456D01*
X92394Y32418D01*
Y28582D01*
X92386Y28543D01*
X92394Y28505D01*
Y28502D01*
X92389Y28464D01*
X92394Y28448D01*
Y27531D01*
X92394D01*
X92488Y27172D01*
X92155Y26755D01*
X91890D01*
X91469Y26785D01*
Y27106D01*
X90552D01*
X90536Y27111D01*
X90498Y27106D01*
X90495D01*
X90456Y27114D01*
X90418Y27106D01*
X86582D01*
X86544Y27114D01*
X86505Y27106D01*
X86502D01*
X86464Y27111D01*
X86448Y27106D01*
X85532D01*
Y27106D01*
X85031Y27067D01*
X84969Y27106D01*
Y27106D01*
X84052D01*
X84036Y27111D01*
X83998Y27106D01*
X83995D01*
X83956Y27114D01*
X83918Y27106D01*
X79529D01*
Y27867D01*
X86509Y34846D01*
X86971Y34654D01*
Y33783D01*
X86631Y33274D01*
X86477Y32500D01*
X86631Y31726D01*
X87069Y31069D01*
X87726Y30631D01*
X88500Y30477D01*
X89274Y30631D01*
X89931Y31069D01*
X90369Y31726D01*
X90523Y32500D01*
X90369Y33274D01*
X90029Y33783D01*
Y35366D01*
X91932Y37269D01*
X92394Y37078D01*
D02*
G37*
G36*
X96152Y34543D02*
X96531D01*
X96459Y34520D01*
X96394Y34449D01*
X96337Y34331D01*
X96287Y34166D01*
X96245Y33953D01*
X96211Y33693D01*
X96206Y33618D01*
X96245Y33047D01*
X96287Y32834D01*
X96337Y32669D01*
X96394Y32551D01*
X96459Y32480D01*
X96531Y32456D01*
X96154D01*
X96150Y32181D01*
X93787D01*
X93785Y32456D01*
X93406D01*
X93478Y32480D01*
X93543Y32551D01*
X93600Y32669D01*
X93650Y32834D01*
X93692Y33047D01*
X93726Y33307D01*
X93731Y33382D01*
X93692Y33953D01*
X93650Y34166D01*
X93600Y34331D01*
X93543Y34449D01*
X93478Y34520D01*
X93406Y34543D01*
X93783D01*
X93787Y34819D01*
X96150D01*
X96152Y34543D01*
D02*
G37*
G36*
X94532Y41750D02*
X94519Y41720D01*
X94507Y41670D01*
X94497Y41600D01*
X94481Y41400D01*
X94468Y40760D01*
X93468D01*
X93468Y40950D01*
X93418Y41720D01*
X93405Y41750D01*
X93390Y41760D01*
X94547D01*
X94532Y41750D01*
D02*
G37*
G36*
X87484Y41760D02*
X87374Y41759D01*
X87097Y41739D01*
X87021Y41726D01*
X86955Y41712D01*
X86897Y41694D01*
X86849Y41674D01*
X86809Y41651D01*
X86777Y41625D01*
Y43040D01*
X86913Y43183D01*
X87035Y43325D01*
X87143Y43468D01*
X87236Y43609D01*
X87315Y43751D01*
X87380Y43892D01*
X87430Y44033D01*
X87467Y44174D01*
X87489Y44314D01*
X87496Y44454D01*
X87484Y41760D01*
D02*
G37*
G36*
X90595Y41750D02*
X90582Y41720D01*
X90570Y41670D01*
X90560Y41600D01*
X90544Y41400D01*
X90531Y40760D01*
X89531D01*
X89531Y40950D01*
X89481Y41720D01*
X89468Y41750D01*
X89453Y41760D01*
X90610D01*
X90595Y41750D01*
D02*
G37*
G36*
X92564D02*
X92550Y41720D01*
X92538Y41670D01*
X92528Y41600D01*
X92513Y41400D01*
X92500Y40760D01*
X91500D01*
X91499Y40950D01*
X91450Y41720D01*
X91436Y41750D01*
X91422Y41760D01*
X92579D01*
X92564Y41750D01*
D02*
G37*
G36*
X82505Y15402D02*
X82520Y15230D01*
X82545Y15078D01*
X82580Y14947D01*
X82625Y14835D01*
X82680Y14744D01*
X82745Y14673D01*
X82820Y14623D01*
X82905Y14592D01*
X83000Y14582D01*
X81000D01*
X81095Y14592D01*
X81180Y14623D01*
X81255Y14673D01*
X81320Y14744D01*
X81375Y14835D01*
X81420Y14947D01*
X81455Y15078D01*
X81480Y15230D01*
X81495Y15402D01*
X81500Y15594D01*
X82500D01*
X82505Y15402D01*
D02*
G37*
G36*
X82905Y16908D02*
X82820Y16877D01*
X82745Y16827D01*
X82680Y16756D01*
X82625Y16665D01*
X82580Y16553D01*
X82545Y16422D01*
X82520Y16270D01*
X82505Y16098D01*
X82500Y15906D01*
X81500D01*
X81495Y16098D01*
X81480Y16270D01*
X81455Y16422D01*
X81420Y16553D01*
X81375Y16665D01*
X81320Y16756D01*
X81255Y16827D01*
X81180Y16877D01*
X81095Y16908D01*
X81000Y16918D01*
X83000D01*
X82905Y16908D01*
D02*
G37*
G36*
X51516Y14969D02*
X51563Y14747D01*
X51641Y14515D01*
X51751Y14272D01*
X51892Y14020D01*
X52064Y13758D01*
X52268Y13485D01*
X52769Y12911D01*
X53067Y12609D01*
X48933D01*
X49231Y12911D01*
X49732Y13485D01*
X49936Y13758D01*
X50108Y14020D01*
X50249Y14272D01*
X50359Y14515D01*
X50437Y14747D01*
X50484Y14969D01*
X50500Y15182D01*
X51500D01*
X51516Y14969D01*
D02*
G37*
G36*
X61516D02*
X61563Y14747D01*
X61641Y14515D01*
X61751Y14272D01*
X61892Y14020D01*
X62064Y13758D01*
X62268Y13485D01*
X62769Y12911D01*
X63067Y12609D01*
X58933D01*
X59231Y12911D01*
X59732Y13485D01*
X59936Y13758D01*
X60108Y14020D01*
X60249Y14272D01*
X60359Y14515D01*
X60437Y14747D01*
X60484Y14969D01*
X60500Y15182D01*
X61500D01*
X61516Y14969D01*
D02*
G37*
G36*
X86544Y22969D02*
X86520Y23041D01*
X86449Y23106D01*
X86331Y23163D01*
X86165Y23213D01*
X85953Y23255D01*
X85693Y23289D01*
X85368Y23312D01*
X84547Y23255D01*
X84334Y23213D01*
X84169Y23163D01*
X84051Y23106D01*
X83980Y23041D01*
X83956Y22969D01*
Y26094D01*
X83980Y26022D01*
X84051Y25957D01*
X84169Y25900D01*
X84334Y25850D01*
X84547Y25808D01*
X84807Y25774D01*
X85132Y25751D01*
X85953Y25808D01*
X86165Y25850D01*
X86331Y25900D01*
X86449Y25957D01*
X86520Y26022D01*
X86544Y26094D01*
Y22969D01*
D02*
G37*
G36*
X96459Y28520D02*
X96394Y28449D01*
X96337Y28331D01*
X96287Y28166D01*
X96245Y27953D01*
X96211Y27693D01*
X96165Y27032D01*
X96150Y26181D01*
X93787D01*
X93784Y26630D01*
X93692Y27953D01*
X93650Y28166D01*
X93600Y28331D01*
X93543Y28449D01*
X93478Y28520D01*
X93406Y28543D01*
X96531D01*
X96459Y28520D01*
D02*
G37*
G36*
X80626Y20557D02*
X80971Y20267D01*
X81129Y20158D01*
X81275Y20074D01*
X81411Y20014D01*
X81537Y19979D01*
X81652Y19968D01*
X81757Y19982D01*
X81851Y20019D01*
X80055Y19011D01*
X80128Y19070D01*
X80169Y19147D01*
X80178Y19243D01*
X80154Y19357D01*
X80098Y19489D01*
X80010Y19640D01*
X79890Y19809D01*
X79738Y19996D01*
X79336Y20425D01*
X80437Y20738D01*
X80626Y20557D01*
D02*
G37*
G36*
X90480Y26022D02*
X90551Y25957D01*
X90669Y25900D01*
X90834Y25850D01*
X91047Y25808D01*
X91307Y25774D01*
X91968Y25728D01*
X92819Y25713D01*
Y23350D01*
X92370Y23347D01*
X91047Y23255D01*
X90834Y23213D01*
X90669Y23163D01*
X90551Y23106D01*
X90480Y23041D01*
X90456Y22969D01*
Y26094D01*
X90480Y26022D01*
D02*
G37*
G36*
X64092Y44405D02*
X64123Y44320D01*
X64173Y44245D01*
X64244Y44180D01*
X64335Y44125D01*
X64447Y44080D01*
X64578Y44045D01*
X64730Y44020D01*
X64902Y44005D01*
X65094Y44000D01*
Y43000D01*
X64902Y42995D01*
X64730Y42980D01*
X64578Y42955D01*
X64447Y42920D01*
X64335Y42875D01*
X64244Y42820D01*
X64173Y42755D01*
X64123Y42680D01*
X64092Y42595D01*
X64082Y42500D01*
Y44500D01*
X64092Y44405D01*
D02*
G37*
G36*
X82760Y50421D02*
X82750Y50436D01*
X82720Y50450D01*
X82670Y50462D01*
X82600Y50472D01*
X82400Y50487D01*
X81760Y50500D01*
Y51500D01*
X81950Y51501D01*
X82720Y51550D01*
X82750Y51564D01*
X82760Y51578D01*
Y50421D01*
D02*
G37*
G36*
X101250Y53534D02*
X101280Y53522D01*
X101330Y53511D01*
X101400Y53502D01*
X101600Y53488D01*
X102240Y53480D01*
Y52480D01*
X102050Y52478D01*
X101330Y52434D01*
X101280Y52421D01*
X101250Y52406D01*
X101240Y52390D01*
Y53547D01*
X101250Y53534D01*
D02*
G37*
G36*
X194280Y58472D02*
X175206D01*
X175170Y58480D01*
X175133Y58472D01*
X174173D01*
Y57603D01*
X174153Y57483D01*
X174148Y57473D01*
X174067Y57396D01*
X173850Y57270D01*
X173484Y57128D01*
X172975Y56997D01*
X172345Y56890D01*
X170657Y56757D01*
X170431Y56753D01*
X106000D01*
X105024Y56624D01*
X104114Y56247D01*
X103332Y55648D01*
X102752Y54891D01*
X102700Y54888D01*
X102252Y55092D01*
Y56528D01*
X100911D01*
Y57748D01*
X107581Y64419D01*
X107913Y64915D01*
X108029Y65500D01*
Y73855D01*
X108493Y74047D01*
X109319Y74681D01*
X109953Y75507D01*
X110351Y76468D01*
X110487Y77500D01*
X110351Y78532D01*
X109953Y79493D01*
X109319Y80319D01*
X108493Y80953D01*
X107532Y81351D01*
X106500Y81487D01*
X105468Y81351D01*
X104507Y80953D01*
X103681Y80319D01*
X103047Y79493D01*
X102649Y78532D01*
X102513Y77500D01*
X102649Y76468D01*
X103047Y75507D01*
X103681Y74681D01*
X104507Y74047D01*
X104971Y73855D01*
Y66133D01*
X98300Y59463D01*
X98028Y59055D01*
X97610Y59106D01*
X97528Y59138D01*
Y61252D01*
X97466D01*
Y73640D01*
X97532Y73649D01*
X98493Y74047D01*
X99319Y74681D01*
X99953Y75507D01*
X100351Y76468D01*
X100487Y77500D01*
X100351Y78532D01*
X99953Y79493D01*
X99319Y80319D01*
X98493Y80953D01*
X97532Y81351D01*
X96500Y81487D01*
X95468Y81351D01*
X94507Y80953D01*
X93681Y80319D01*
X93047Y79493D01*
X92649Y78532D01*
X92513Y77500D01*
X92649Y76468D01*
X93047Y75507D01*
X93681Y74681D01*
X94408Y74123D01*
Y68409D01*
X93946Y68217D01*
X88573Y73590D01*
X88680Y74190D01*
X89319Y74681D01*
X89953Y75507D01*
X90351Y76468D01*
X90487Y77500D01*
X90351Y78532D01*
X89953Y79493D01*
X89319Y80319D01*
X88493Y80953D01*
X87532Y81351D01*
X86500Y81487D01*
X85468Y81351D01*
X84507Y80953D01*
X83681Y80319D01*
X83047Y79493D01*
X82649Y78532D01*
X82513Y77500D01*
X82649Y76468D01*
X83047Y75507D01*
X83681Y74681D01*
X84507Y74047D01*
X84971Y73855D01*
Y73500D01*
X85087Y72915D01*
X85419Y72419D01*
X92439Y65398D01*
Y61252D01*
X92378D01*
Y55512D01*
X96512D01*
Y53347D01*
X96528D01*
Y52591D01*
X96512D01*
Y49409D01*
X100928D01*
X107887Y42450D01*
X108383Y42118D01*
X108968Y42002D01*
X112031D01*
Y40957D01*
X117968D01*
Y40957D01*
X118032Y40957D01*
Y40957D01*
X123969D01*
Y46106D01*
X118032D01*
Y46106D01*
X117968Y46106D01*
Y46106D01*
X112031D01*
Y45061D01*
X109602D01*
X105923Y48740D01*
X106162Y49208D01*
X170010D01*
X171572Y49153D01*
X172332Y49073D01*
X172975Y48964D01*
X173484Y48832D01*
X173850Y48691D01*
X174067Y48564D01*
X174148Y48487D01*
X174153Y48478D01*
X174173Y48358D01*
Y47488D01*
X175133D01*
X175170Y47481D01*
X175206Y47488D01*
X194280D01*
Y1220D01*
X1220D01*
Y47488D01*
X22598D01*
Y49211D01*
X76411Y49227D01*
X76603Y48765D01*
X72866Y45029D01*
X65106D01*
Y46468D01*
X59957D01*
Y40532D01*
X65106D01*
Y41971D01*
X72654D01*
X72846Y41509D01*
X49919Y18581D01*
X49587Y18085D01*
X49471Y17500D01*
Y15104D01*
X49452Y15016D01*
X49409Y14889D01*
X49338Y14732D01*
X49236Y14549D01*
X49101Y14343D01*
X48939Y14127D01*
X48483Y13604D01*
X48266Y13385D01*
X48181Y13319D01*
X47547Y12493D01*
X47149Y11532D01*
X47013Y10500D01*
X47149Y9468D01*
X47547Y8507D01*
X48181Y7681D01*
X49007Y7047D01*
X49968Y6649D01*
X51000Y6513D01*
X52032Y6649D01*
X52993Y7047D01*
X53819Y7681D01*
X54453Y8507D01*
X54851Y9468D01*
X54987Y10500D01*
X54851Y11532D01*
X54453Y12493D01*
X53819Y13319D01*
X53734Y13385D01*
X53517Y13605D01*
X53061Y14127D01*
X52899Y14344D01*
X52764Y14549D01*
X52662Y14732D01*
X52591Y14889D01*
X52548Y15016D01*
X52529Y15104D01*
Y16867D01*
X59009Y23346D01*
X59471Y23154D01*
Y15104D01*
X59452Y15016D01*
X59409Y14889D01*
X59338Y14732D01*
X59236Y14549D01*
X59101Y14343D01*
X58939Y14127D01*
X58483Y13604D01*
X58266Y13385D01*
X58181Y13319D01*
X57547Y12493D01*
X57149Y11532D01*
X57013Y10500D01*
X57149Y9468D01*
X57547Y8507D01*
X58181Y7681D01*
X59007Y7047D01*
X59968Y6649D01*
X61000Y6513D01*
X62032Y6649D01*
X62993Y7047D01*
X63819Y7681D01*
X64453Y8507D01*
X64851Y9468D01*
X64987Y10500D01*
X64851Y11532D01*
X64453Y12493D01*
X63819Y13319D01*
X63734Y13385D01*
X63517Y13605D01*
X63061Y14127D01*
X62899Y14344D01*
X62764Y14549D01*
X62662Y14732D01*
X62591Y14889D01*
X62548Y15016D01*
X62529Y15104D01*
Y23866D01*
X77904Y39241D01*
X81922Y35224D01*
X82159Y34822D01*
X76919Y29581D01*
X76587Y29085D01*
X76471Y28500D01*
Y22468D01*
X76587Y21883D01*
X76919Y21387D01*
X78803Y19502D01*
X78969Y19325D01*
X79031Y19248D01*
Y15894D01*
X79031D01*
Y15606D01*
X79031D01*
Y10457D01*
X84969D01*
Y15606D01*
X84969D01*
Y15894D01*
X84969D01*
Y21043D01*
X81641D01*
X81590Y21079D01*
X81358Y21273D01*
X81137Y21495D01*
X81328Y21957D01*
X83918D01*
X83956Y21949D01*
X83995Y21957D01*
X83998D01*
X84036Y21952D01*
X84052Y21957D01*
X84969D01*
Y21957D01*
X85469Y21996D01*
X85532Y21957D01*
Y21957D01*
X86448D01*
X86464Y21952D01*
X86502Y21957D01*
X86505D01*
X86544Y21949D01*
X86582Y21957D01*
X90418D01*
X90456Y21949D01*
X90495Y21957D01*
X90498D01*
X90536Y21952D01*
X90552Y21957D01*
X91469D01*
Y22262D01*
X92126Y22308D01*
X94810D01*
X94968Y22276D01*
X104500D01*
X104500Y22276D01*
X105351Y22445D01*
X106072Y22928D01*
X107453Y24308D01*
X110531D01*
Y23957D01*
X116469D01*
Y23957D01*
X116894Y23776D01*
Y23531D01*
X122043D01*
Y29469D01*
X117023D01*
Y34894D01*
X117968D01*
Y40043D01*
X112031D01*
Y34894D01*
X112977D01*
Y29106D01*
X110531D01*
Y28755D01*
X106532D01*
X106532Y28755D01*
X105681Y28586D01*
X104959Y28104D01*
X104959Y28104D01*
X103579Y26724D01*
X97661D01*
X97380Y27177D01*
X97543Y27531D01*
X97543D01*
Y28448D01*
X97548Y28464D01*
X97543Y28502D01*
Y28505D01*
X97551Y28543D01*
X97543Y28582D01*
Y32418D01*
X97551Y32456D01*
X97543Y32495D01*
Y32498D01*
X97548Y32536D01*
X97543Y32552D01*
Y33031D01*
X97543Y33468D01*
X97543D01*
Y33531D01*
X97543D01*
Y34448D01*
X97548Y34464D01*
X97543Y34502D01*
Y34505D01*
X97551Y34543D01*
X97543Y34582D01*
Y39469D01*
X96739D01*
X96431Y39931D01*
X96417Y39940D01*
X96381Y40117D01*
X96050Y40613D01*
X95559Y41104D01*
Y41722D01*
X95567Y41760D01*
X95559Y41798D01*
Y46488D01*
X87488D01*
Y49409D01*
Y52591D01*
X87472D01*
Y53347D01*
X87488D01*
Y55512D01*
X91622D01*
Y61252D01*
X91561D01*
Y63968D01*
X91444Y64554D01*
X91113Y65050D01*
X80159Y76004D01*
X80351Y76468D01*
X80487Y77500D01*
X80351Y78532D01*
X79953Y79493D01*
X79319Y80319D01*
X78493Y80953D01*
X77532Y81351D01*
X76500Y81487D01*
X75468Y81351D01*
X74507Y80953D01*
X73681Y80319D01*
X73047Y79493D01*
X72649Y78532D01*
X72513Y77500D01*
X72649Y76468D01*
X73047Y75507D01*
X73681Y74681D01*
X74507Y74047D01*
X75468Y73649D01*
X76500Y73513D01*
X77532Y73649D01*
X77996Y73841D01*
X88502Y63335D01*
Y61252D01*
X87356D01*
X78526Y70081D01*
X78030Y70413D01*
X77445Y70529D01*
X71134D01*
X68578Y73085D01*
X68769Y73547D01*
X70453D01*
Y81453D01*
X62547D01*
Y73547D01*
X64971D01*
Y73000D01*
X65087Y72415D01*
X65419Y71919D01*
X69419Y67919D01*
X69915Y67587D01*
X70500Y67471D01*
X76811D01*
X80303Y63979D01*
X80057Y63518D01*
X80000Y63529D01*
X77106D01*
Y64969D01*
X71957D01*
Y59031D01*
X77106D01*
Y60471D01*
X79366D01*
X82810Y57028D01*
X82602Y56528D01*
X81748D01*
Y54471D01*
X80940Y54468D01*
X80766Y54887D01*
X80167Y55668D01*
X79385Y56268D01*
X78475Y56644D01*
X77499Y56772D01*
X22952Y56756D01*
X22598Y57110D01*
Y58472D01*
X1220D01*
Y104280D01*
X194280D01*
Y58472D01*
D02*
G37*
G36*
X175170Y48484D02*
X175114Y48815D01*
X174949Y49111D01*
X174673Y49372D01*
X174288Y49598D01*
X173792Y49789D01*
X173185Y49946D01*
X172469Y50068D01*
X171642Y50155D01*
X169658Y50224D01*
Y55736D01*
X170705Y55754D01*
X172469Y55893D01*
X173185Y56015D01*
X173792Y56171D01*
X174288Y56363D01*
X174673Y56589D01*
X174949Y56850D01*
X175114Y57146D01*
X175170Y57476D01*
Y48484D01*
D02*
G37*
G36*
X116955Y44436D02*
X116985Y44352D01*
X117036Y44276D01*
X117106Y44212D01*
X117198Y44157D01*
X117309Y44111D01*
X117440Y44076D01*
X117592Y44052D01*
X117764Y44036D01*
X117956Y44032D01*
Y43031D01*
X117764Y43027D01*
X117592Y43012D01*
X117440Y42987D01*
X117309Y42952D01*
X117198Y42906D01*
X117106Y42851D01*
X117036Y42786D01*
X116985Y42711D01*
X116955Y42627D01*
X116945Y42531D01*
Y44532D01*
X116955Y44436D01*
D02*
G37*
G36*
X113043Y42531D02*
X113033Y42627D01*
X113004Y42711D01*
X112953Y42786D01*
X112883Y42851D01*
X112794Y42906D01*
X112683Y42952D01*
X112554Y42987D01*
X112404Y43012D01*
X112233Y43027D01*
X112043Y43031D01*
Y44032D01*
X112233Y44036D01*
X112404Y44052D01*
X112554Y44076D01*
X112683Y44111D01*
X112794Y44157D01*
X112883Y44212D01*
X112953Y44276D01*
X113004Y44352D01*
X113033Y44436D01*
X113043Y44532D01*
Y42531D01*
D02*
G37*
G36*
X84399Y46496D02*
X84311Y46541D01*
X84211Y46559D01*
X84100Y46552D01*
X83976Y46519D01*
X83841Y46460D01*
X83693Y46375D01*
X83534Y46264D01*
X83363Y46128D01*
X82984Y45777D01*
X82053Y46260D01*
X82187Y46401D01*
X82307Y46542D01*
X82414Y46681D01*
X82506Y46821D01*
X82583Y46959D01*
X82647Y47097D01*
X82696Y47234D01*
X82732Y47370D01*
X82753Y47506D01*
X82760Y47642D01*
X84399Y46496D01*
D02*
G37*
G36*
X119055Y42531D02*
X119045Y42627D01*
X119015Y42711D01*
X118964Y42786D01*
X118894Y42851D01*
X118802Y42906D01*
X118691Y42952D01*
X118560Y42987D01*
X118408Y43012D01*
X118236Y43027D01*
X118043Y43031D01*
Y44032D01*
X118236Y44036D01*
X118408Y44052D01*
X118560Y44076D01*
X118691Y44111D01*
X118802Y44157D01*
X118894Y44212D01*
X118964Y44276D01*
X119015Y44352D01*
X119045Y44436D01*
X119055Y44532D01*
Y42531D01*
D02*
G37*
%LPC*%
G36*
X76500Y92487D02*
X75468Y92351D01*
X74507Y91953D01*
X73681Y91319D01*
X73047Y90493D01*
X72649Y89532D01*
X72513Y88500D01*
X72649Y87468D01*
X73047Y86507D01*
X73681Y85681D01*
X74507Y85047D01*
X75468Y84649D01*
X76500Y84513D01*
X77532Y84649D01*
X78493Y85047D01*
X79319Y85681D01*
X79953Y86507D01*
X80351Y87468D01*
X80487Y88500D01*
X80351Y89532D01*
X79953Y90493D01*
X79319Y91319D01*
X78493Y91953D01*
X77532Y92351D01*
X76500Y92487D01*
D02*
G37*
G36*
X86500D02*
X85468Y92351D01*
X84507Y91953D01*
X83681Y91319D01*
X83047Y90493D01*
X82649Y89532D01*
X82513Y88500D01*
X82649Y87468D01*
X83047Y86507D01*
X83681Y85681D01*
X84507Y85047D01*
X85468Y84649D01*
X86500Y84513D01*
X87532Y84649D01*
X88493Y85047D01*
X89319Y85681D01*
X89953Y86507D01*
X90351Y87468D01*
X90487Y88500D01*
X90351Y89532D01*
X89953Y90493D01*
X89319Y91319D01*
X88493Y91953D01*
X87532Y92351D01*
X86500Y92487D01*
D02*
G37*
G36*
X96500D02*
X95468Y92351D01*
X94507Y91953D01*
X93681Y91319D01*
X93047Y90493D01*
X92649Y89532D01*
X92513Y88500D01*
X92649Y87468D01*
X93047Y86507D01*
X93681Y85681D01*
X94507Y85047D01*
X95468Y84649D01*
X96500Y84513D01*
X97532Y84649D01*
X98493Y85047D01*
X99319Y85681D01*
X99953Y86507D01*
X100351Y87468D01*
X100487Y88500D01*
X100351Y89532D01*
X99953Y90493D01*
X99319Y91319D01*
X98493Y91953D01*
X97532Y92351D01*
X96500Y92487D01*
D02*
G37*
G36*
X91469Y21043D02*
X85532D01*
Y15894D01*
X85532D01*
Y15606D01*
X85532D01*
Y10457D01*
X91469D01*
Y15606D01*
X91469D01*
Y15894D01*
X91469D01*
Y21043D01*
D02*
G37*
G36*
X59043Y46468D02*
X53894D01*
Y40532D01*
X53894D01*
Y40468D01*
X53894D01*
Y34532D01*
X54769D01*
X54869Y34032D01*
X39919Y19081D01*
X39587Y18585D01*
X39471Y18000D01*
Y14453D01*
X37047D01*
Y6547D01*
X44953D01*
Y14453D01*
X42529D01*
Y17367D01*
X57550Y32387D01*
X57881Y32883D01*
X57998Y33468D01*
Y34532D01*
X59043D01*
Y40468D01*
X59043D01*
Y40532D01*
X59043D01*
Y46468D01*
D02*
G37*
G36*
X106500Y92487D02*
X105468Y92351D01*
X104507Y91953D01*
X103681Y91319D01*
X103047Y90493D01*
X102649Y89532D01*
X102513Y88500D01*
X102649Y87468D01*
X103047Y86507D01*
X103681Y85681D01*
X104507Y85047D01*
X105468Y84649D01*
X106500Y84513D01*
X107532Y84649D01*
X108493Y85047D01*
X109319Y85681D01*
X109953Y86507D01*
X110351Y87468D01*
X110487Y88500D01*
X110351Y89532D01*
X109953Y90493D01*
X109319Y91319D01*
X108493Y91953D01*
X107532Y92351D01*
X106500Y92487D01*
D02*
G37*
G36*
X120453Y92453D02*
X112547D01*
Y84547D01*
X120453D01*
Y92453D01*
D02*
G37*
G36*
X65606Y64969D02*
Y64969D01*
X65408Y64969D01*
X60457D01*
Y59031D01*
X65606D01*
Y59031D01*
X65894D01*
Y59031D01*
X71043D01*
Y64969D01*
X66092D01*
X65894Y64969D01*
Y64969D01*
X65606D01*
D02*
G37*
G36*
X141500Y34724D02*
X141500Y34724D01*
X131532D01*
X131532Y34724D01*
X130681Y34555D01*
X129959Y34073D01*
X129959Y34073D01*
X125355Y29469D01*
X122957D01*
Y23531D01*
X128106D01*
Y25930D01*
X132453Y30276D01*
X140579D01*
X140957Y29898D01*
Y24532D01*
X141308D01*
Y23658D01*
X139772D01*
Y16342D01*
X141308D01*
Y14650D01*
X139047D01*
Y6744D01*
X146953D01*
Y14650D01*
X145755D01*
Y16342D01*
X146890D01*
Y23658D01*
X145755D01*
Y24532D01*
X146106D01*
Y30468D01*
X145755D01*
X145755Y30468D01*
X145586Y31319D01*
X145104Y32041D01*
X145104Y32041D01*
X143072Y34073D01*
X142351Y34555D01*
X141500Y34724D01*
D02*
G37*
G36*
X116500Y81487D02*
X115468Y81351D01*
X114507Y80953D01*
X113681Y80319D01*
X113047Y79493D01*
X112649Y78532D01*
X112513Y77500D01*
X112649Y76468D01*
X113047Y75507D01*
X113681Y74681D01*
X114507Y74047D01*
X115468Y73649D01*
X116500Y73513D01*
X117532Y73649D01*
X118493Y74047D01*
X119319Y74681D01*
X119953Y75507D01*
X120351Y76468D01*
X120487Y77500D01*
X120351Y78532D01*
X119953Y79493D01*
X119319Y80319D01*
X118493Y80953D01*
X117532Y81351D01*
X116500Y81487D01*
D02*
G37*
G36*
X66500Y92487D02*
X65468Y92351D01*
X64507Y91953D01*
X63681Y91319D01*
X63047Y90493D01*
X62649Y89532D01*
X62513Y88500D01*
X62649Y87468D01*
X63047Y86507D01*
X63681Y85681D01*
X64507Y85047D01*
X65468Y84649D01*
X66500Y84513D01*
X67532Y84649D01*
X68493Y85047D01*
X69319Y85681D01*
X69953Y86507D01*
X70351Y87468D01*
X70487Y88500D01*
X70351Y89532D01*
X69953Y90493D01*
X69319Y91319D01*
X68493Y91953D01*
X67532Y92351D01*
X66500Y92487D01*
D02*
G37*
%LPD*%
G36*
X56973Y40266D02*
X56989Y40097D01*
X57013Y39946D01*
X57048Y39816D01*
X57094Y39707D01*
X57148Y39617D01*
X57213Y39546D01*
X57288Y39496D01*
X57373Y39467D01*
X57468Y39456D01*
X55468D01*
X55563Y39467D01*
X55648Y39496D01*
X55724Y39546D01*
X55788Y39617D01*
X55844Y39707D01*
X55888Y39816D01*
X55923Y39946D01*
X55949Y40097D01*
X55963Y40266D01*
X55968Y40457D01*
X56968D01*
X56973Y40266D01*
D02*
G37*
G36*
X57373Y41533D02*
X57288Y41504D01*
X57213Y41453D01*
X57148Y41383D01*
X57094Y41293D01*
X57048Y41184D01*
X57013Y41054D01*
X56989Y40903D01*
X56973Y40734D01*
X56968Y40543D01*
X55968D01*
X55963Y40734D01*
X55949Y40903D01*
X55923Y41054D01*
X55888Y41184D01*
X55844Y41293D01*
X55788Y41383D01*
X55724Y41453D01*
X55648Y41504D01*
X55563Y41533D01*
X55468Y41543D01*
X57468D01*
X57373Y41533D01*
D02*
G37*
G36*
Y35545D02*
X57288Y35515D01*
X57213Y35464D01*
X57148Y35394D01*
X57094Y35302D01*
X57048Y35191D01*
X57013Y35060D01*
X56989Y34908D01*
X56973Y34736D01*
X56968Y34543D01*
X55968D01*
X55963Y34736D01*
X55949Y34908D01*
X55923Y35060D01*
X55888Y35191D01*
X55844Y35302D01*
X55788Y35394D01*
X55724Y35464D01*
X55648Y35515D01*
X55563Y35545D01*
X55468Y35555D01*
X57468D01*
X57373Y35545D01*
D02*
G37*
G36*
X89002Y17082D02*
X89015Y16918D01*
X89500D01*
X89405Y16908D01*
X89320Y16877D01*
X89245Y16827D01*
X89180Y16756D01*
X89125Y16665D01*
X89095Y16591D01*
X89121Y16542D01*
X89153Y16494D01*
X89189Y16453D01*
X89053D01*
X89045Y16422D01*
X89020Y16270D01*
X89005Y16098D01*
X89000Y15906D01*
X88000D01*
X87995Y16098D01*
X87980Y16270D01*
X87955Y16422D01*
X87947Y16453D01*
X87811D01*
X87847Y16494D01*
X87879Y16542D01*
X87905Y16591D01*
X87875Y16665D01*
X87820Y16756D01*
X87755Y16827D01*
X87680Y16877D01*
X87595Y16908D01*
X87500Y16918D01*
X87986D01*
X87992Y16983D01*
X88000Y17188D01*
X89000D01*
X89002Y17082D01*
D02*
G37*
G36*
X89005Y15402D02*
X89020Y15230D01*
X89045Y15078D01*
X89053Y15047D01*
X89189D01*
X89153Y15006D01*
X89121Y14958D01*
X89095Y14909D01*
X89125Y14835D01*
X89180Y14744D01*
X89245Y14673D01*
X89320Y14623D01*
X89405Y14592D01*
X89500Y14582D01*
X89014D01*
X89008Y14517D01*
X89000Y14312D01*
X88000D01*
X87998Y14418D01*
X87985Y14582D01*
X87500D01*
X87595Y14592D01*
X87680Y14623D01*
X87755Y14673D01*
X87820Y14744D01*
X87875Y14835D01*
X87905Y14909D01*
X87879Y14958D01*
X87847Y15006D01*
X87811Y15047D01*
X87947D01*
X87955Y15078D01*
X87980Y15230D01*
X87995Y15402D01*
X88000Y15594D01*
X89000D01*
X89005Y15402D01*
D02*
G37*
G36*
X41505Y14248D02*
X41520Y14076D01*
X41545Y13925D01*
X41580Y13793D01*
X41625Y13682D01*
X41680Y13591D01*
X41745Y13520D01*
X41820Y13469D01*
X41905Y13439D01*
X42000Y13429D01*
X40000D01*
X40095Y13439D01*
X40180Y13469D01*
X40255Y13520D01*
X40320Y13591D01*
X40375Y13682D01*
X40420Y13793D01*
X40455Y13925D01*
X40480Y14076D01*
X40495Y14248D01*
X40500Y14441D01*
X41500D01*
X41505Y14248D01*
D02*
G37*
D10*
X88063Y58382D02*
D03*
X90031D02*
D03*
X92000D02*
D03*
X93968D02*
D03*
X95937D02*
D03*
Y43618D02*
D03*
X93968D02*
D03*
X92000D02*
D03*
X90031D02*
D03*
X88063D02*
D03*
D11*
X99382Y54937D02*
D03*
Y52969D02*
D03*
Y51000D02*
D03*
Y49031D02*
D03*
Y47063D02*
D03*
X84618D02*
D03*
Y49031D02*
D03*
Y51000D02*
D03*
Y52969D02*
D03*
Y54937D02*
D03*
D12*
X63032Y62000D02*
D03*
X56968D02*
D03*
X68468D02*
D03*
X74532D02*
D03*
X143532Y27500D02*
D03*
X137469D02*
D03*
X125531Y26500D02*
D03*
X119468D02*
D03*
X94968Y36500D02*
D03*
X101031D02*
D03*
X94968Y30500D02*
D03*
X101031D02*
D03*
X56468Y37500D02*
D03*
X62532D02*
D03*
Y43500D02*
D03*
X56468D02*
D03*
D13*
X143331Y20000D02*
D03*
X134669D02*
D03*
D14*
X113500Y26531D02*
D03*
Y20469D02*
D03*
X88500Y24532D02*
D03*
Y18469D02*
D03*
X82000Y24532D02*
D03*
Y18469D02*
D03*
X88500Y13032D02*
D03*
Y6968D02*
D03*
X82000Y13032D02*
D03*
Y6968D02*
D03*
X115000Y37468D02*
D03*
Y43532D02*
D03*
X121000Y43532D02*
D03*
Y37468D02*
D03*
D15*
X81644Y39144D02*
D03*
X77356Y34856D02*
D03*
D16*
X11772Y70236D02*
D03*
Y35726D02*
D03*
X185000Y35724D02*
D03*
Y70234D02*
D03*
D17*
X11772Y52980D02*
D03*
X185000D02*
D03*
D18*
X106500Y65500D02*
Y77500D01*
X99382Y58382D02*
X106500Y65500D01*
X99382Y54937D02*
Y58382D01*
X77445Y69000D02*
X88063Y58382D01*
X70500Y69000D02*
X77445D01*
X93968Y40532D02*
Y43618D01*
Y40532D02*
X94968Y39531D01*
X41000Y10500D02*
Y18000D01*
X56468Y33468D01*
Y35969D01*
Y33468D02*
Y43500D01*
X62532D02*
X73500D01*
X81000Y51000D01*
X81248D01*
X81264D02*
X84618D01*
X82531Y49031D02*
X84618D01*
X51000Y17500D02*
X82531Y49031D01*
X51000Y10500D02*
Y17500D01*
X90031Y40532D02*
Y43618D01*
X82000Y13032D02*
Y18469D01*
X78000Y22468D02*
X82000Y18469D01*
X78000Y22468D02*
Y28500D01*
X90031Y40532D01*
X92000Y39500D02*
Y43618D01*
X88500Y36000D02*
X92000Y39500D01*
X88500Y32500D02*
Y36000D01*
Y13032D02*
Y15750D01*
Y18469D01*
X84500Y40055D02*
X88063Y43618D01*
X84500Y40000D02*
Y40055D01*
X61000Y10500D02*
Y24500D01*
X83441Y46941D01*
X84496D01*
X83644Y39144D02*
X84500Y40000D01*
X83644Y38500D02*
Y39144D01*
X82144Y37644D02*
X83000Y38500D01*
X83644D01*
X99382Y51000D02*
X101500D01*
X108968Y43532D01*
X121000D01*
X99382Y52969D02*
X107500Y53000D01*
X76500Y52937D02*
X84618Y52969D01*
X66500Y73000D02*
X70500Y69000D01*
X66500Y73000D02*
Y77500D01*
X76500Y77500D02*
X90031Y63968D01*
Y58382D02*
Y63968D01*
X93968Y58382D02*
Y66031D01*
X86500Y73500D02*
X93968Y66031D01*
X86500Y73500D02*
Y77500D01*
X95937Y58382D02*
Y76937D01*
X74532Y62000D02*
X80000D01*
X84618Y57382D01*
Y54937D02*
Y57382D01*
X63032Y62000D02*
X65750D01*
X68468D01*
X94968Y36500D02*
Y39531D01*
D19*
X11772Y52980D02*
X77500Y53000D01*
X106000Y52980D02*
X185000D01*
D20*
X94968Y30500D02*
Y36500D01*
X82000Y24532D02*
X88500D01*
X94937D01*
X94968Y24500D02*
Y30500D01*
Y24500D02*
X104500D01*
X106532Y26531D01*
X113500D01*
X125531Y26500D02*
X131532Y32500D01*
X141500D01*
X143532Y30468D01*
Y11228D02*
Y27500D01*
Y30468D01*
X115000Y26531D02*
X119437D01*
D21*
X113500D02*
X115000D01*
Y37468D01*
D22*
X0Y0D02*
Y16000D01*
Y0D02*
X195500D01*
Y105500D01*
X0D02*
X195500D01*
X0Y16000D02*
Y105500D01*
D23*
X116500Y77500D02*
D03*
X106500D02*
D03*
X96500D02*
D03*
X86500Y77500D02*
D03*
X76500D02*
D03*
X66500Y99500D02*
D03*
X76500D02*
D03*
X86500D02*
D03*
X96500D02*
D03*
X106500D02*
D03*
X66500Y88500D02*
D03*
X76500Y88500D02*
D03*
X86500D02*
D03*
X96500D02*
D03*
X106500D02*
D03*
X133000Y10697D02*
D03*
X61000Y10500D02*
D03*
X51000D02*
D03*
D24*
X66500Y77500D02*
D03*
X116500Y99500D02*
D03*
Y88500D02*
D03*
X143000Y10697D02*
D03*
X41000Y10500D02*
D03*
D25*
X92000Y51000D02*
D03*
D26*
X79000Y33000D02*
D03*
X99000Y62500D02*
D03*
X87500D02*
D03*
X78500Y58500D02*
D03*
X123000Y36000D02*
D03*
X91500Y35000D02*
D03*
X84000Y29000D02*
D03*
X88500Y15750D02*
D03*
Y32500D02*
D03*
X95000Y38500D02*
D03*
X83644D02*
D03*
X76000Y33500D02*
D03*
X101000Y38500D02*
D03*
Y34000D02*
D03*
Y28000D02*
D03*
X90500Y7000D02*
D03*
X80000D02*
D03*
X64000Y37500D02*
D03*
X62500Y35500D02*
D03*
X65750Y62000D02*
D03*
X92000Y62500D02*
D03*
X115500Y20500D02*
D03*
X103000Y46000D02*
D03*
Y43000D02*
D03*
X54500Y62000D02*
D03*
X58500Y64500D02*
D03*
X137500Y24500D02*
D03*
X131500Y20000D02*
D03*
X134000Y24000D02*
D03*
X197821Y54887D02*
D03*
Y48982D02*
D03*
X193055Y45494D02*
D03*
X187150D02*
D03*
X181244D02*
D03*
X175339D02*
D03*
X169692Y47222D02*
D03*
X163786D02*
D03*
X157881D02*
D03*
X151975D02*
D03*
X146070D02*
D03*
X140164D02*
D03*
X134259D02*
D03*
X128353D02*
D03*
X122448D02*
D03*
X116542D02*
D03*
X110637D02*
D03*
X110731Y58738D02*
D03*
X116636D02*
D03*
X122542D02*
D03*
X128447D02*
D03*
X134353D02*
D03*
X140258D02*
D03*
X146164D02*
D03*
X152069D02*
D03*
X157975D02*
D03*
X163881D02*
D03*
X169786D02*
D03*
X175433Y60466D02*
D03*
X181339D02*
D03*
X187244D02*
D03*
X193149D02*
D03*
X22385Y60365D02*
D03*
X28063Y58743D02*
D03*
X33969Y58745D02*
D03*
X39874Y58747D02*
D03*
X45780Y58748D02*
D03*
X51686Y58750D02*
D03*
X72024Y47240D02*
D03*
X66118Y47239D02*
D03*
X60213Y47237D02*
D03*
X54307Y47235D02*
D03*
X48401Y47233D02*
D03*
X42496Y47232D02*
D03*
X36590Y47230D02*
D03*
X30685Y47228D02*
D03*
X24780Y47226D02*
D03*
X19134Y45494D02*
D03*
X13228D02*
D03*
X7323D02*
D03*
X1418Y45562D02*
D03*
X3606Y60466D02*
D03*
X9512D02*
D03*
X15417D02*
D03*
X3398Y12421D02*
D03*
Y24232D02*
D03*
Y83287D02*
D03*
Y95098D02*
D03*
X15209Y12421D02*
D03*
Y24232D02*
D03*
Y83287D02*
D03*
Y95098D02*
D03*
X27020Y12421D02*
D03*
Y24232D02*
D03*
Y36043D02*
D03*
Y71476D02*
D03*
Y83287D02*
D03*
Y95098D02*
D03*
X38831Y24232D02*
D03*
Y36043D02*
D03*
Y71476D02*
D03*
Y83287D02*
D03*
Y95098D02*
D03*
X50642Y36043D02*
D03*
Y71476D02*
D03*
Y83287D02*
D03*
Y95098D02*
D03*
X62453Y71476D02*
D03*
Y83287D02*
D03*
Y95098D02*
D03*
X74264Y12421D02*
D03*
Y24232D02*
D03*
Y83287D02*
D03*
X86075D02*
D03*
X97886Y12421D02*
D03*
Y83287D02*
D03*
X109697Y12421D02*
D03*
Y36043D02*
D03*
Y83287D02*
D03*
X121508Y12421D02*
D03*
X133319Y36043D02*
D03*
Y71476D02*
D03*
Y83287D02*
D03*
Y95098D02*
D03*
X145130Y36043D02*
D03*
Y71476D02*
D03*
Y83287D02*
D03*
Y95098D02*
D03*
X156941Y12421D02*
D03*
Y24232D02*
D03*
Y36043D02*
D03*
Y71476D02*
D03*
Y83287D02*
D03*
Y95098D02*
D03*
X168752Y12421D02*
D03*
Y24232D02*
D03*
Y36043D02*
D03*
Y71476D02*
D03*
Y83287D02*
D03*
Y95098D02*
D03*
X180563Y12421D02*
D03*
Y24232D02*
D03*
Y83287D02*
D03*
Y95098D02*
D03*
D27*
X92000Y51000D02*
D03*
X94362Y48638D02*
D03*
X89638D02*
D03*
X94362Y53362D02*
D03*
X89638D02*
D03*
M02*
