G04 Layer_Color=8421504*
%FSLAX25Y25*%
%MOIN*%
G70*
G01*
G75*
%ADD10R,0.01181X0.03740*%
%ADD11R,0.03740X0.01181*%
%ADD12R,0.03150X0.03937*%
%ADD13R,0.05118X0.05315*%
%ADD14R,0.03937X0.03150*%
G04:AMPARAMS|DCode=15|XSize=31.5mil|YSize=39.37mil|CornerRadius=0mil|HoleSize=0mil|Usage=FLASHONLY|Rotation=45.000|XOffset=0mil|YOffset=0mil|HoleType=Round|Shape=Rectangle|*
%AMROTATEDRECTD15*
4,1,4,0.00278,-0.02506,-0.02506,0.00278,-0.00278,0.02506,0.02506,-0.00278,0.00278,-0.02506,0.0*
%
%ADD15ROTATEDRECTD15*%

%ADD16R,0.20000X0.09508*%
%ADD17R,0.19685X0.09016*%
%ADD22C,0.00394*%
D10*
X88063Y58382D02*
D03*
X90031D02*
D03*
X92000D02*
D03*
X93968D02*
D03*
X95937D02*
D03*
Y43618D02*
D03*
X93968D02*
D03*
X92000D02*
D03*
X90031D02*
D03*
X88063D02*
D03*
D11*
X99382Y54937D02*
D03*
Y52969D02*
D03*
Y51000D02*
D03*
Y49031D02*
D03*
Y47063D02*
D03*
X84618D02*
D03*
Y49031D02*
D03*
Y51000D02*
D03*
Y52969D02*
D03*
Y54937D02*
D03*
D12*
X63032Y62000D02*
D03*
X56968D02*
D03*
X68468D02*
D03*
X74532D02*
D03*
X143532Y27500D02*
D03*
X137469D02*
D03*
X125531Y26500D02*
D03*
X119468D02*
D03*
X94968Y36500D02*
D03*
X101031D02*
D03*
X94968Y30500D02*
D03*
X101031D02*
D03*
X56468Y37500D02*
D03*
X62532D02*
D03*
Y43500D02*
D03*
X56468D02*
D03*
D13*
X143331Y20000D02*
D03*
X134669D02*
D03*
D14*
X113500Y26531D02*
D03*
Y20469D02*
D03*
X88500Y24532D02*
D03*
Y18469D02*
D03*
X82000Y24532D02*
D03*
Y18469D02*
D03*
X88500Y13032D02*
D03*
Y6968D02*
D03*
X82000Y13032D02*
D03*
Y6968D02*
D03*
X115000Y37468D02*
D03*
Y43532D02*
D03*
X121000Y43532D02*
D03*
Y37468D02*
D03*
D15*
X81644Y39144D02*
D03*
X77356Y34856D02*
D03*
D16*
X11772Y70236D02*
D03*
Y35726D02*
D03*
X185000Y35724D02*
D03*
Y70234D02*
D03*
D17*
X11772Y52980D02*
D03*
X185000D02*
D03*
D22*
X0Y0D02*
Y16000D01*
Y0D02*
X195500D01*
Y105500D01*
X0D02*
X195500D01*
X0Y16000D02*
Y105500D01*
M02*
