G04 Layer_Color=32768*
%FSLAX25Y25*%
%MOIN*%
G70*
G01*
G75*
%ADD22C,0.00394*%
%ADD28C,0.00787*%
D22*
X92000Y49031D02*
Y52969D01*
X90031Y51000D02*
X93968D01*
X81764Y40764D02*
X102236D01*
X81764Y61236D02*
X102236D01*
Y40764D02*
Y61236D01*
X81764Y40764D02*
Y61236D01*
X60000Y60327D02*
Y63673D01*
X58327Y62000D02*
X61673D01*
X71500Y60327D02*
Y63673D01*
X69827Y62000D02*
X73173D01*
X139000Y18032D02*
Y21969D01*
X137031Y20000D02*
X140969D01*
X140500Y25827D02*
Y29173D01*
X138827Y27500D02*
X142173D01*
X111827Y23500D02*
X115173D01*
X113500Y21827D02*
Y25173D01*
X122500Y24827D02*
Y28173D01*
X120827Y26500D02*
X124173D01*
X98000Y34827D02*
Y38173D01*
X96327Y36500D02*
X99673D01*
X98000Y28827D02*
Y32173D01*
X96327Y30500D02*
X99673D01*
X78317Y38183D02*
X80683Y35817D01*
X78317D02*
X80683Y38183D01*
X59500Y35827D02*
X59500Y39173D01*
X57827Y37500D02*
X61173D01*
X59500Y41827D02*
Y45173D01*
X57827Y43500D02*
X61173D01*
X86827Y21500D02*
X90173D01*
X88500Y19827D02*
Y23173D01*
X80327Y21500D02*
X83673D01*
X82000Y19827D02*
Y23173D01*
X86827Y10000D02*
X90173D01*
X88500Y8327D02*
Y11673D01*
X80327Y10000D02*
X83673D01*
X82000Y8327D02*
Y11673D01*
X113327Y40500D02*
X116673D01*
X115000Y38827D02*
Y42173D01*
X119327Y40500D02*
X122673D01*
X121000Y38827D02*
Y42173D01*
X0Y0D02*
Y16000D01*
Y0D02*
X195500D01*
Y105500D01*
X0D02*
X195500D01*
X0Y16000D02*
Y105500D01*
D28*
X-39Y49043D02*
Y56917D01*
X-3976Y52980D02*
X3898D01*
X23583Y29358D02*
Y76602D01*
X-38425Y29358D02*
X23583D01*
X-38425D02*
Y76602D01*
X23583D01*
X196811Y49043D02*
Y56917D01*
X192874Y52980D02*
X200748D01*
X173189Y29358D02*
Y76602D01*
X235197D01*
Y29358D02*
Y76602D01*
X173189Y29358D02*
X235197D01*
M02*
