G04 Layer_Physical_Order=2*
G04 Layer_Color=16711680*
%FSLAX25Y25*%
%MOIN*%
G70*
G01*
G75*
%ADD16R,0.20000X0.09508*%
%ADD18C,0.01000*%
%ADD20C,0.02362*%
%ADD21C,0.01969*%
%ADD22C,0.00394*%
%ADD23C,0.05906*%
%ADD24R,0.05906X0.05906*%
%ADD25R,0.08661X0.08661*%
%ADD26C,0.01969*%
%ADD27C,0.02362*%
G36*
X194280Y1220D02*
X1220D01*
Y104280D01*
X194280D01*
Y1220D01*
D02*
G37*
%LPC*%
G36*
X88500Y34523D02*
X87726Y34369D01*
X87069Y33931D01*
X86631Y33274D01*
X86477Y32500D01*
X86631Y31726D01*
X86971Y31217D01*
Y17033D01*
X86631Y16524D01*
X86477Y15750D01*
X86631Y14976D01*
X87069Y14319D01*
X87726Y13881D01*
X88500Y13727D01*
X89274Y13881D01*
X89931Y14319D01*
X90369Y14976D01*
X90523Y15750D01*
X90369Y16524D01*
X90029Y17033D01*
Y31217D01*
X90369Y31726D01*
X90523Y32500D01*
X90369Y33274D01*
X89931Y33931D01*
X89274Y34369D01*
X88500Y34523D01*
D02*
G37*
G36*
X51000Y14487D02*
X49968Y14351D01*
X49007Y13953D01*
X48181Y13319D01*
X47547Y12493D01*
X47149Y11532D01*
X47013Y10500D01*
X47149Y9468D01*
X47547Y8507D01*
X48181Y7681D01*
X49007Y7047D01*
X49968Y6649D01*
X51000Y6513D01*
X52032Y6649D01*
X52993Y7047D01*
X53819Y7681D01*
X54453Y8507D01*
X54851Y9468D01*
X54987Y10500D01*
X54851Y11532D01*
X54453Y12493D01*
X53819Y13319D01*
X52993Y13953D01*
X52032Y14351D01*
X51000Y14487D01*
D02*
G37*
G36*
X61000D02*
X59968Y14351D01*
X59007Y13953D01*
X58181Y13319D01*
X57547Y12493D01*
X57149Y11532D01*
X57013Y10500D01*
X57149Y9468D01*
X57547Y8507D01*
X58181Y7681D01*
X59007Y7047D01*
X59968Y6649D01*
X61000Y6513D01*
X62032Y6649D01*
X62993Y7047D01*
X63819Y7681D01*
X64453Y8507D01*
X64851Y9468D01*
X64987Y10500D01*
X64851Y11532D01*
X64453Y12493D01*
X63819Y13319D01*
X62993Y13953D01*
X62032Y14351D01*
X61000Y14487D01*
D02*
G37*
G36*
X44953Y14453D02*
X37047D01*
Y6547D01*
X44953D01*
Y14453D01*
D02*
G37*
G36*
X146953Y14650D02*
X139047D01*
Y6744D01*
X146953D01*
Y14650D01*
D02*
G37*
G36*
X106500Y81487D02*
X105468Y81351D01*
X104507Y80953D01*
X103681Y80319D01*
X103047Y79493D01*
X102649Y78532D01*
X102513Y77500D01*
X102649Y76468D01*
X103047Y75507D01*
X103681Y74681D01*
X104507Y74047D01*
X105468Y73649D01*
X106500Y73513D01*
X107532Y73649D01*
X108493Y74047D01*
X109319Y74681D01*
X109953Y75507D01*
X110351Y76468D01*
X110487Y77500D01*
X110351Y78532D01*
X109953Y79493D01*
X109319Y80319D01*
X108493Y80953D01*
X107532Y81351D01*
X106500Y81487D01*
D02*
G37*
G36*
X70453Y81453D02*
X62547D01*
Y73547D01*
X70453D01*
Y81453D01*
D02*
G37*
G36*
X106500Y92487D02*
X105468Y92351D01*
X104507Y91953D01*
X103681Y91319D01*
X103070Y90523D01*
X99930D01*
X99319Y91319D01*
X98493Y91953D01*
X97532Y92351D01*
X96500Y92487D01*
X95468Y92351D01*
X94507Y91953D01*
X93681Y91319D01*
X93070Y90523D01*
X89930D01*
X89319Y91319D01*
X88493Y91953D01*
X87532Y92351D01*
X86500Y92487D01*
X85468Y92351D01*
X84507Y91953D01*
X83681Y91319D01*
X83070Y90523D01*
X79930D01*
X79319Y91319D01*
X78493Y91953D01*
X77532Y92351D01*
X76500Y92487D01*
X75468Y92351D01*
X74507Y91953D01*
X73681Y91319D01*
X73070Y90523D01*
X69930D01*
X69319Y91319D01*
X68493Y91953D01*
X67532Y92351D01*
X66500Y92487D01*
X65468Y92351D01*
X64507Y91953D01*
X63681Y91319D01*
X63047Y90493D01*
X62649Y89532D01*
X62513Y88500D01*
X62649Y87468D01*
X63047Y86507D01*
X63681Y85681D01*
X64507Y85047D01*
X65468Y84649D01*
X66500Y84513D01*
X67532Y84649D01*
X68493Y85047D01*
X69319Y85681D01*
X69930Y86477D01*
X73070D01*
X73681Y85681D01*
X74507Y85047D01*
X75468Y84649D01*
X76500Y84513D01*
X77532Y84649D01*
X78493Y85047D01*
X79319Y85681D01*
X79930Y86477D01*
X83070D01*
X83681Y85681D01*
X84507Y85047D01*
X85468Y84649D01*
X86500Y84513D01*
X87532Y84649D01*
X88493Y85047D01*
X89319Y85681D01*
X89930Y86477D01*
X93070D01*
X93681Y85681D01*
X94507Y85047D01*
X95468Y84649D01*
X96500Y84513D01*
X97532Y84649D01*
X98493Y85047D01*
X99319Y85681D01*
X99930Y86477D01*
X103070D01*
X103681Y85681D01*
X104507Y85047D01*
X105468Y84649D01*
X106500Y84513D01*
X107532Y84649D01*
X108493Y85047D01*
X109319Y85681D01*
X109930Y86477D01*
X112547D01*
Y84547D01*
X120453D01*
Y84547D01*
X120953Y84725D01*
X120977Y84709D01*
Y77893D01*
X120944Y77856D01*
X120705Y77876D01*
X120419Y78017D01*
X120351Y78532D01*
X119953Y79493D01*
X119319Y80319D01*
X118493Y80953D01*
X117532Y81351D01*
X116500Y81487D01*
X115468Y81351D01*
X114507Y80953D01*
X113681Y80319D01*
X113047Y79493D01*
X112649Y78532D01*
X112513Y77500D01*
X112649Y76468D01*
X112841Y76004D01*
X104367Y67529D01*
X69750D01*
X69165Y67413D01*
X68669Y67081D01*
X65575Y63988D01*
X64976Y63869D01*
X64319Y63431D01*
X63881Y62774D01*
X63727Y62000D01*
X63881Y61226D01*
X64319Y60569D01*
X64976Y60131D01*
X65750Y59977D01*
X66524Y60131D01*
X67181Y60569D01*
X67619Y61226D01*
X67738Y61826D01*
X70384Y64471D01*
X105000D01*
X105502Y64570D01*
X105698Y64358D01*
X105797Y64158D01*
X98069Y56431D01*
X97631Y55774D01*
X97477Y55000D01*
Y43838D01*
X94363Y40724D01*
X83644D01*
X82793Y40555D01*
X82071Y40073D01*
X81589Y39351D01*
X81420Y38500D01*
X81589Y37649D01*
X82071Y36928D01*
X82793Y36445D01*
X83644Y36276D01*
X95000D01*
X95851Y36445D01*
X96573Y36928D01*
X97054Y37649D01*
X97066Y37705D01*
X100931Y41569D01*
X101369Y42226D01*
X101523Y43000D01*
Y54162D01*
X115338Y67977D01*
X120500D01*
X121274Y68131D01*
X121931Y68569D01*
X124431Y71069D01*
X124869Y71726D01*
X125023Y72500D01*
Y86000D01*
X124869Y86774D01*
X124431Y87431D01*
X121931Y89931D01*
X121274Y90369D01*
X120500Y90523D01*
X120453D01*
Y92453D01*
X112547D01*
Y90523D01*
X109930D01*
X109319Y91319D01*
X108493Y91953D01*
X107532Y92351D01*
X106500Y92487D01*
D02*
G37*
G36*
X76500Y81487D02*
X75468Y81351D01*
X74507Y80953D01*
X73681Y80319D01*
X73047Y79493D01*
X72649Y78532D01*
X72513Y77500D01*
X72649Y76468D01*
X73047Y75507D01*
X73681Y74681D01*
X74507Y74047D01*
X75468Y73649D01*
X76500Y73513D01*
X77532Y73649D01*
X78493Y74047D01*
X79319Y74681D01*
X79953Y75507D01*
X80351Y76468D01*
X80487Y77500D01*
X80351Y78532D01*
X79953Y79493D01*
X79319Y80319D01*
X78493Y80953D01*
X77532Y81351D01*
X76500Y81487D01*
D02*
G37*
G36*
X86500D02*
X85468Y81351D01*
X84507Y80953D01*
X83681Y80319D01*
X83047Y79493D01*
X82649Y78532D01*
X82513Y77500D01*
X82649Y76468D01*
X83047Y75507D01*
X83681Y74681D01*
X84507Y74047D01*
X85468Y73649D01*
X86500Y73513D01*
X87532Y73649D01*
X88493Y74047D01*
X89319Y74681D01*
X89953Y75507D01*
X90351Y76468D01*
X90487Y77500D01*
X90351Y78532D01*
X89953Y79493D01*
X89319Y80319D01*
X88493Y80953D01*
X87532Y81351D01*
X86500Y81487D01*
D02*
G37*
G36*
X96500Y81487D02*
X95468Y81351D01*
X94507Y80953D01*
X93681Y80319D01*
X93047Y79493D01*
X92649Y78532D01*
X92513Y77500D01*
X92649Y76468D01*
X93047Y75507D01*
X93681Y74681D01*
X94507Y74047D01*
X95468Y73649D01*
X96500Y73513D01*
X97532Y73649D01*
X98493Y74047D01*
X99319Y74681D01*
X99953Y75507D01*
X100351Y76468D01*
X100487Y77500D01*
X100351Y78532D01*
X99953Y79493D01*
X99319Y80319D01*
X98493Y80953D01*
X97532Y81351D01*
X96500Y81487D01*
D02*
G37*
%LPD*%
G36*
X89153Y31756D02*
X89121Y31708D01*
X89093Y31653D01*
X89068Y31591D01*
X89047Y31521D01*
X89030Y31443D01*
X89017Y31359D01*
X89008Y31267D01*
X89000Y31062D01*
X88000D01*
X87998Y31168D01*
X87983Y31359D01*
X87970Y31443D01*
X87953Y31521D01*
X87932Y31591D01*
X87907Y31653D01*
X87879Y31708D01*
X87847Y31756D01*
X87811Y31797D01*
X89189D01*
X89153Y31756D01*
D02*
G37*
G36*
X89002Y17082D02*
X89017Y16891D01*
X89030Y16807D01*
X89047Y16729D01*
X89068Y16659D01*
X89093Y16597D01*
X89121Y16542D01*
X89153Y16494D01*
X89189Y16453D01*
X87811D01*
X87847Y16494D01*
X87879Y16542D01*
X87907Y16597D01*
X87932Y16659D01*
X87953Y16729D01*
X87970Y16807D01*
X87983Y16891D01*
X87992Y16983D01*
X88000Y17188D01*
X89000D01*
X89002Y17082D01*
D02*
G37*
D16*
X11772Y35724D02*
D03*
Y70236D02*
D03*
X185000D02*
D03*
Y35724D02*
D03*
D18*
X88500Y15750D02*
Y32500D01*
X65750Y62000D02*
X69750Y66000D01*
X105000D01*
X116500Y77500D01*
D20*
X83644Y38500D02*
X95000D01*
D21*
X99500Y43000D01*
Y55000D01*
X66500Y88500D02*
X76500D01*
X86500D01*
X96500D01*
X106500D01*
X116500D01*
X120500D01*
X123000Y72500D02*
Y86000D01*
X120500Y88500D02*
X123000Y86000D01*
X99500Y55000D02*
X114500Y70000D01*
X120500D01*
X123000Y72500D01*
D22*
X0Y0D02*
Y16000D01*
Y0D02*
X195500D01*
Y105500D01*
X0D02*
X195500D01*
X0Y16000D02*
Y105500D01*
D23*
X116500Y77500D02*
D03*
X106500D02*
D03*
X96500D02*
D03*
X86500Y77500D02*
D03*
X76500D02*
D03*
X66500Y99500D02*
D03*
X76500D02*
D03*
X86500D02*
D03*
X96500D02*
D03*
X106500D02*
D03*
X66500Y88500D02*
D03*
X76500Y88500D02*
D03*
X86500D02*
D03*
X96500D02*
D03*
X106500D02*
D03*
X133000Y10697D02*
D03*
X61000Y10500D02*
D03*
X51000D02*
D03*
D24*
X66500Y77500D02*
D03*
X116500Y99500D02*
D03*
Y88500D02*
D03*
X143000Y10697D02*
D03*
X41000Y10500D02*
D03*
D25*
X92000Y51000D02*
D03*
D26*
X79000Y33000D02*
D03*
X99000Y62500D02*
D03*
X87500D02*
D03*
X78500Y58500D02*
D03*
X123000Y36000D02*
D03*
X91500Y35000D02*
D03*
X84000Y29000D02*
D03*
X88500Y15750D02*
D03*
Y32500D02*
D03*
X95000Y38500D02*
D03*
X83644D02*
D03*
X76000Y33500D02*
D03*
X101000Y38500D02*
D03*
Y34000D02*
D03*
Y28000D02*
D03*
X90500Y7000D02*
D03*
X80000D02*
D03*
X64000Y37500D02*
D03*
X62500Y35500D02*
D03*
X65750Y62000D02*
D03*
X92000Y62500D02*
D03*
X115500Y20500D02*
D03*
X103000Y46000D02*
D03*
Y43000D02*
D03*
X54500Y62000D02*
D03*
X58500Y64500D02*
D03*
X137500Y24500D02*
D03*
X131500Y20000D02*
D03*
X134000Y24000D02*
D03*
X197821Y54887D02*
D03*
Y48982D02*
D03*
X193055Y45494D02*
D03*
X187150D02*
D03*
X181244D02*
D03*
X175339D02*
D03*
X169692Y47222D02*
D03*
X163786D02*
D03*
X157881D02*
D03*
X151975D02*
D03*
X146070D02*
D03*
X140164D02*
D03*
X134259D02*
D03*
X128353D02*
D03*
X122448D02*
D03*
X116542D02*
D03*
X110637D02*
D03*
X110731Y58738D02*
D03*
X116636D02*
D03*
X122542D02*
D03*
X128447D02*
D03*
X134353D02*
D03*
X140258D02*
D03*
X146164D02*
D03*
X152069D02*
D03*
X157975D02*
D03*
X163881D02*
D03*
X169786D02*
D03*
X175433Y60466D02*
D03*
X181339D02*
D03*
X187244D02*
D03*
X193149D02*
D03*
X22385Y60365D02*
D03*
X28063Y58743D02*
D03*
X33969Y58745D02*
D03*
X39874Y58747D02*
D03*
X45780Y58748D02*
D03*
X51686Y58750D02*
D03*
X72024Y47240D02*
D03*
X66118Y47239D02*
D03*
X60213Y47237D02*
D03*
X54307Y47235D02*
D03*
X48401Y47233D02*
D03*
X42496Y47232D02*
D03*
X36590Y47230D02*
D03*
X30685Y47228D02*
D03*
X24780Y47226D02*
D03*
X19134Y45494D02*
D03*
X13228D02*
D03*
X7323D02*
D03*
X1418Y45562D02*
D03*
X3606Y60466D02*
D03*
X9512D02*
D03*
X15417D02*
D03*
X3398Y12421D02*
D03*
Y24232D02*
D03*
Y83287D02*
D03*
Y95098D02*
D03*
X15209Y12421D02*
D03*
Y24232D02*
D03*
Y83287D02*
D03*
Y95098D02*
D03*
X27020Y12421D02*
D03*
Y24232D02*
D03*
Y36043D02*
D03*
Y71476D02*
D03*
Y83287D02*
D03*
Y95098D02*
D03*
X38831Y24232D02*
D03*
Y36043D02*
D03*
Y71476D02*
D03*
Y83287D02*
D03*
Y95098D02*
D03*
X50642Y36043D02*
D03*
Y71476D02*
D03*
Y83287D02*
D03*
Y95098D02*
D03*
X62453Y71476D02*
D03*
Y83287D02*
D03*
Y95098D02*
D03*
X74264Y12421D02*
D03*
Y24232D02*
D03*
Y83287D02*
D03*
X86075D02*
D03*
X97886Y12421D02*
D03*
Y83287D02*
D03*
X109697Y12421D02*
D03*
Y36043D02*
D03*
Y83287D02*
D03*
X121508Y12421D02*
D03*
X133319Y36043D02*
D03*
Y71476D02*
D03*
Y83287D02*
D03*
Y95098D02*
D03*
X145130Y36043D02*
D03*
Y71476D02*
D03*
Y83287D02*
D03*
Y95098D02*
D03*
X156941Y12421D02*
D03*
Y24232D02*
D03*
Y36043D02*
D03*
Y71476D02*
D03*
Y83287D02*
D03*
Y95098D02*
D03*
X168752Y12421D02*
D03*
Y24232D02*
D03*
Y36043D02*
D03*
Y71476D02*
D03*
Y83287D02*
D03*
Y95098D02*
D03*
X180563Y12421D02*
D03*
Y24232D02*
D03*
Y83287D02*
D03*
Y95098D02*
D03*
D27*
X92000Y51000D02*
D03*
X94362Y48638D02*
D03*
X89638D02*
D03*
X94362Y53362D02*
D03*
X89638D02*
D03*
M02*
